<svg width="41" height="41" fill="#fff" xmlns="http://www.w3.org/2000/svg"><path d="M32.592 0H8.408C3.772 0 0 3.772 0 8.408v24.184C0 37.228 3.772 41 8.408 41h24.184C37.228 41 41 37.228 41 32.592V8.408C41 3.772 37.228 0 32.592 0zm6.006 32.592a6.013 6.013 0 01-6.006 6.006H8.408a6.013 6.013 0 01-6.006-6.006V8.408a6.013 6.013 0 016.006-6.006h24.184a6.013 6.013 0 016.006 6.006v24.184z"/><path d="M24.476 9.892a2.004 2.004 0 00-3.668-.483l-.308.534-.308-.534a2.004 2.004 0 00-2.735-.733 2.004 2.004 0 00-.733 2.735l1.464 2.536-5.401 9.356H8.849a2.004 2.004 0 00-2.002 2.002c0 1.104.898 2.002 2.002 2.002h15.203l-2.311-4.004H17.41l6.866-11.892a1.989 1.989 0 00.2-1.519z"/><path d="M32.151 23.303h-3.938l-4.477-7.755-2.311 4.004 6.95 12.04a2.014 2.014 0 001.737 1.002 2.004 2.004 0 001.73-3.004l-1.317-2.283h1.626a2.004 2.004 0 002.002-2.002 2.004 2.004 0 00-2.002-2.002zM9.55 28.908l-.393.682a2.004 2.004 0 001.73 3.003c.692 0 1.367-.36 1.737-1.001l1.55-2.684H9.55z"/></svg>