<svg width="25" height="25" fill="none" xmlns="http://www.w3.org/2000/svg"><path d="M10.173 14.827c-2.31-2.31-2.832-4.62-2.95-5.545a.83.83 0 01.239-.695l1.87-1.868a.835.835 0 00.117-1.033L6.473 1.064A.835.835 0 005.39.76L.613 3.01a.83.83 0 00-.459.83c.25 2.378 1.288 8.225 7.033 13.971 5.746 5.746 11.592 6.783 13.972 7.033a.83.83 0 00.829-.459l2.25-4.778a.834.834 0 00-.302-1.08l-4.622-2.975a.834.834 0 00-1.033.117l-1.868 1.87a.83.83 0 01-.695.237c-.925-.117-3.235-.639-5.545-2.949z" fill="#fff"/><path d="M19.346 13.582a.834.834 0 01-.835-.834 6.266 6.266 0 00-6.259-6.26.835.835 0 010-1.668 7.937 7.937 0 017.928 7.928c0 .46-.373.834-.834.834z" fill="#fff"/><path d="M23.518 13.582a.835.835 0 01-.834-.834C22.677 6.989 18.01 2.323 12.252 2.316a.835.835 0 010-1.669c6.68.007 12.094 5.42 12.101 12.1a.835.835 0 01-.835.835z" fill="#fff"/></svg>