<svg width="421" height="83" fill="none" xmlns="http://www.w3.org/2000/svg"><g clip-path="url(#clip0)"><path d="M22.38 0h376v.01c6.16 0 11.76 2.52 15.81 6.58 4.04 4.04 6.55 9.62 6.55 15.77h.01v37.76h-.01c0 6.16-2.52 11.75-6.57 15.81-4.04 4.04-9.63 6.55-15.77 6.55v.01H22.37v-.01c-6.16 0-11.75-2.52-15.81-6.57C2.52 71.87.01 66.28.01 60.13H0V22.37h.01c0-6.16 2.52-11.75 6.57-15.81C10.62 2.52 16.2.01 22.35.01V0h.03z" fill="#fff"/><path fill-rule="evenodd" clip-rule="evenodd" d="M396.65 5.31v-.02h1.73c4.54 0 8.85 1.82 12.05 5.02 3.2 3.2 5.03 7.51 5.03 12.05v1.73h-.01V58.4h.01v1.73c0 4.54-1.82 8.85-5.02 12.05-3.2 3.2-7.51 5.02-12.05 5.03h-1.73v-.01H24.1v.01h-1.73c-4.54 0-8.85-1.82-12.05-5.02-3.2-3.2-5.02-7.51-5.03-12.05v-1.73h.02V24.1h-.02v-1.73c0-4.54 1.82-8.85 5.02-12.05 3.2-3.2 7.51-5.03 12.05-5.03h1.73v.01h372.56v.01z" fill="#fff"/><path fill-rule="evenodd" clip-rule="evenodd" d="M127.12 23.38h-21.67c-3.86 0-6.99 3.36-6.99 7.49v25.71c0 .98.73 1.78 1.65 1.78h3.68c.91 0 1.66-.79 1.66-1.77V43.36h21.67c.91 0 1.66-.8 1.66-1.78V25.15c0-.98-.75-1.77-1.66-1.77zm-61.34 6.77c0-.98.75-1.77 1.66-1.77h20.01c.91 0 1.66-.8 1.66-1.78v-1.45c0-.99-.74-1.78-1.66-1.78H65.78c-3.86 0-6.99 3.36-6.99 7.49v25.71c0 .98.73 1.78 1.66 1.78h27c.91 0 1.66-.8 1.66-1.77v-1.44c0-.99-.74-1.77-1.66-1.77h-20c-.91 0-1.66-.8-1.66-1.78v-8.22h17c.93 0 1.66-.8 1.66-1.78v-1.44c0-.98-.73-1.77-1.66-1.77h-17v-8.23h-.01zm78.33 21.44c0 .98.75 1.78 1.66 1.78h20.02c.91 0 1.66.78 1.66 1.77l-.01 1.44c0 .97-.74 1.77-1.65 1.77h-27.02c-.91 0-1.66-.8-1.66-1.77V30.87c0-4.13 3.14-7.49 7-7.49h21.68c.91 0 1.66.79 1.66 1.78l-.01 1.45c0 .98-.74 1.78-1.65 1.78h-20.02c-.91 0-1.66.79-1.66 1.77v21.43zM41.48 30.15c0-.98-.74-1.77-1.66-1.77H26.8c-.92 0-1.65.79-1.65 1.77v26.43c0 .98-.75 1.78-1.66 1.78H19.8c-.91 0-1.66-.8-1.66-1.77V30.87c0-4.13 3.13-7.49 7-7.49h21.68c.91 0 1.66.79 1.66 1.78l-.01 31.42c0 .98-.75 1.78-1.66 1.78h-3.69c-.91 0-1.65-.8-1.65-1.77V30.15h.01zm164.64.72c0-4.13-3.13-7.49-6.99-7.49h-21.67c-.92 0-1.66.79-1.66 1.78v31.43c0 .97.74 1.77 1.66 1.77h27c.92 0 1.66-.8 1.66-1.77V30.87zm-6.99 20.72c0 .98-.75 1.78-1.66 1.78h-13.01c-.92 0-1.66-.8-1.66-1.78V30.15c0-.98.74-1.77 1.66-1.77h13.01c.91 0 1.66.79 1.66 1.77v21.44zm86.31-20.72c0-4.13-3.14-7.49-7-7.49h-21.68c-.92 0-1.65.79-1.65 1.78v31.42c0 .98.73 1.77 1.65 1.77h3.68c.92 0 1.66-.79 1.66-1.77V43.36h16.33v13.21c0 .98.74 1.78 1.66 1.78h3.68c.91 0 1.66-.8 1.66-1.78v-25.7h.01zm-6.99 7.5h-16.33v-8.22c0-.98.74-1.77 1.66-1.77h13.01c.91 0 1.66.79 1.66 1.77v8.22zm-38-14.99c2.95 0 5.33 2.56 5.33 5.71l.01 27.48c0 .98-.75 1.78-1.66 1.78h-3.68c-.93 0-1.66-.8-1.66-1.78V43.36h-16.33v13.21c0 .98-.75 1.78-1.66 1.78h-3.67c-.93 0-1.66-.8-1.66-1.77V25.15c0-.99.74-1.78 1.66-1.78h3.67c.91 0 1.66.79 1.66 1.78v13.21h16.33V25.15c0-.99.73-1.77 1.66-1.77zm-118.67 13.2c0 .99-.75 1.78-1.66 1.78h-14.67v-8.22c0-.98.75-1.77 1.66-1.77h13.01c.91 0 1.66.79 1.66 1.77v6.44zm176.39-9.71l10.34-5.98 10.35 5.98v11.95l-10.35 5.97-10.34-5.97V26.87z" fill="#000"/><path d="M390.7 46.53l-4.41-11.27-4.33 11.27h8.74zm11.91 12.02h-7.04l-2.8-6.9h-12.8l-2.64 6.9h-6.86l12.48-30.37h6.84l12.82 30.37zm-41.51 0V28.18h6.46v30.37h-6.46zm-25.63-13.24v8.12h5.98c2.33 0 3.81-.06 4.44-.18.96-.16 1.74-.57 2.35-1.21.6-.64.91-1.51.91-2.58 0-.91-.24-1.68-.7-2.32-.47-.64-1.14-1.1-2.02-1.39-.88-.29-2.8-.43-5.73-.43h-5.23v-.01zm0-12.08v7.02h4.24c2.52 0 4.09-.04 4.7-.11 1.11-.12 1.98-.48 2.61-1.08.63-.6.95-1.39.95-2.38 0-.94-.27-1.7-.81-2.29-.55-.59-1.36-.94-2.44-1.06-.64-.07-2.48-.11-5.53-.11h-3.72v.01zM329 28.18h12.8c2.53 0 4.43.1 5.68.3 1.24.2 2.36.61 3.34 1.25s1.8 1.48 2.45 2.54c.66 1.06.98 2.24.98 3.55 0 1.42-.4 2.73-1.21 3.92-.81 1.19-1.91 2.08-3.29 2.67 1.95.54 3.45 1.46 4.5 2.75 1.05 1.3 1.57 2.83 1.57 4.58 0 1.38-.33 2.72-1.01 4.03-.68 1.3-1.6 2.35-2.78 3.13-1.17.78-2.62 1.26-4.34 1.44-1.07.11-3.68.18-7.8.21H329V28.18z" fill="#000"/></g><defs><clipPath id="clip0"><path fill="#fff" d="M0 0h420.76v82.5H0z"/></clipPath></defs></svg>