<svg width="115" height="174" fill="none" xmlns="http://www.w3.org/2000/svg"><path d="M50.537 19.474c1.33.616 2.421.456 2.625.135.361-.546-.85-1.724-1.62-2.25-1.044-.718-2.07-.459-2.348.152-.294.635.232 1.445 1.343 1.963z" fill="url(#paint0_linear)"/><path d="M65.397 34.155c-1.459-1.014-2.966-1.133-3.353-.26-.386.874.478 2.408 1.945 3.426 1.46 1.004 2.965 1.133 3.352.259.386-.874-.488-2.402-1.944-3.425z" fill="url(#paint1_linear)"/><path d="M80.671 39.969c-.229-1.75-1.157-3.152-2.011-3.129-.855.024-1.328 1.467-1.07 3.219.259 1.751 1.185 3.316 2.003 3.125.702-.162 1.32-1.383 1.078-3.215z" fill="url(#paint2_linear)"/><path d="M77.043 57.296c-.73.956-.362 2.4.42 3.396 1.01 1.302 2.55 1.948 2.933 1.658.509-.398.322-1.386-.631-3.29-.75-1.514-2.288-2.32-2.722-1.764z" fill="url(#paint3_linear)"/><path d="M89.166 78.277c.807.524 2.02-.761 2.449-2.583.456-1.965-.052-3.684-1.008-4.105-.959-.41-1.974.78-2.451 2.594-.383 1.479.078 3.497 1.01 4.094z" fill="url(#paint4_linear)"/><path d="M80.091 85.733c-.8.066-1.187 1.475-.866 3.15.322 1.664 1.23 2.946 2.03 2.88.802-.076 1.19-1.485.867-3.149-.323-1.664-1.228-2.957-2.03-2.88z" fill="url(#paint5_linear)"/><path d="M86.408 114.3c.853-.937 1.291-2.162.677-2.681-.806-.685-1.828-.443-2.629.376-.875.906-1.035 2.255-.64 2.74.398.475 1.742.493 2.592-.435z" fill="url(#paint6_linear)"/><path d="M74.747 120.22c.166-1.545-.324-2.993-1.114-3.236-.79-.244-1.57.811-1.738 2.365-.168 1.555.323 2.993 1.114 3.236.79.244 1.56-.815 1.738-2.365z" fill="url(#paint7_linear)"/><path d="M56.837 138.402c1.063.331 2.126-1.112 2.347-3.204.233-2.099-.445-4.073-1.507-4.405-1.065-.321-2.126 1.112-2.36 3.221-.222 2.092.449 4.052 1.52 4.388z" fill="url(#paint8_linear)"/><path d="M55.63 144.67c-1.217-.854-2.188-5.341-2.275-7.616-.132-3.343 1.699-10.497 5.894-7.934 3.075 1.89 2.862 9.597 1.78 12.284-1.273 3.152-3.444 3.535-4.775 3.694 0 0-.195.904-1.037 1.978-.323.421-.545.685-.688.749l-.586-.049c1.206-.816 1.687-3.106 1.687-3.106zm1.079-3.925c1.506.453 2.993-1.564 3.32-4.523.328-2.958-.63-5.729-2.137-6.181-1.504-.463-3.003 1.56-3.33 4.519-.317 2.952.642 5.722 2.147 6.185z" fill="url(#paint9_linear)"/><path d="M97.217 80.416c-2.769 7.344-5.093 8.168-6.233 9.888-.94 1.451-1.249 2.395-1.83 4.036-.39 1.118-3.005 4.65-4.151 5.833-.243 1.844-.602 3.619-1.109 5.235.917-1.537 2.178-3.011 3.317-4 2.938-2.539 6.347-1.635 9.825-.833-2.204 1.385-1.183 4.277-3.828 5.484-3.383 1.55-8.179 1.174-10.51 4.68.823-2.394 3.199-3.437 5.19-4.484 2.957-1.549 5.102-2.423 7.083-5.384-2.069-.098-4.718-.268-6.6.681-1.53.754-3.453 2.897-4.602 5.235-.637 1.313-.842 2.594-1.083 3.958.01-1.764-.172-2.307.32-3.591.065-.181.16-.372.243-.545.408-1.515.714-3.115.95-4.765.388-3.946-2.075-6.278-2.075-6.278-1.87-1.501-3.32-2.46-4.383-5.435-.62-1.725-.876-5.048-.13-6.524 2.07-4.102 5.8.511 6.375 4.182.462 2.861-.306 5.223-1.114 7.536.42.858 1.258 2.53 1.648 4.008.747-7.324.389-15.185.838-20.23-.22 4.255.648 13.075-.311 20.739 1.085-2.058 1.306-5.286 1.702-7.515.435-2.431 1.459-4.526 3.008-6.112 1.563-1.602 5.147-2.547 8.076-8.145-.152 4.576-1.645 8.662-2.429 11.628-.844 3.226-2.968 6.837-5.626 8.06-1.27.587-2.794.644-3.654 1.932 1.071-2.031 2.622-3.159 4.268-4.629 2.78-2.537 5.537-8.838 6.825-14.645zm-14.77 7.61c-.47-2.46-1.81-4.358-2.998-4.25-1.187.106-1.763 2.186-1.282 4.64.472 2.45 1.818 4.361 2.999 4.24 1.186-.096 1.761-2.176 1.28-4.63z" fill="url(#paint10_linear)"/><path d="M64.377 124.692c.952-1.574 3.872-3.274 3.564-6.21.595.972 1.165 1.705 1.549 3.211-.588-4.727-3.37-11.663-6.89-13.028 3.17 6.614-.26 11.082 1.777 16.027z" fill="url(#paint11_linear)"/><path d="M69.32 124.47c.876 7.004-1.98 10.922-3.77 14.38 4.066-.783 5.987-6.605 3.77-14.38z" fill="url(#paint12_linear)"/><path d="M68.877 53.106c1.925.88 4.45.767 6.17.38 1.671-.376 3.197-.869 4.733.235-3.564-5.642-8.144-.923-12.004-4.04-1.055.28-3.121-.832-3.761-.993 1.57 2.382 3.262 3.685 4.862 4.418z" fill="url(#paint13_linear)"/><path d="M63.425 29.89c-2.97-3.716-8.593-1.266-12.024-3.934 2.216 1.589 9.322.144 12.024 3.935-1.343-3.25-6.078-4.476-8.463-4.694-2.257-.208-4.994-.158-6.987-1.174 1.836 2.51 4.272 5.196 7.17 5.754 2.89.544 5.345-1.003 8.28.114z" fill="url(#paint14_linear)"/><path d="M71.472 133.332c.87-1.089 1.592-3.466 1.6-4.404-7.597-6.606-.41-20.563 3.443-10.105 1.277 3.469.596 7.467-2.314 10.094-.088.086-.114.065-.178.183-.902 1.73-1.655 3.74-2.708 5.254l.157-1.022zm1.19-8.576c1.216.368 2.423-1.261 2.689-3.634.265-2.372-.51-4.609-1.727-4.977-1.217-.367-2.424 1.262-2.682 3.648-.263 2.363.502 4.596 1.72 4.963z" fill="url(#paint15_linear)"/><path d="M60.25 143.729c3.007-5.119 1.545-8.058 1.623-11.745.112-5.297 4.233-7.671 5.883-11.847 3.65 7.877-.768 18.453-6.054 22.383-.252.483-1.114.816-1.453 1.209zm2.287-3.321c2.33-5.665 4.253-11.492 5.036-17.857-4.146 5.264-3.545 12.734-5.036 17.857z" fill="url(#paint16_linear)"/><path d="M86.074 83.331c.12-3.513-2.542-5.942-4.644-7.368-3.572-2.418-6.104-4.333-7.488-9.052-.1 3.805.209 7.115 3.05 10.306 2.55 2.865 6.192 2.379 8.651 5.029-1.244-4.453-6.559-4.748-8.531-8.29 3.173 2.802 8.083 3.467 8.962 9.375z" fill="url(#paint17_linear)"/><path d="M95.036 77.09c-.79 3.38-3.24 4.841-6.157 8.154 4.003-3.097 8.294-4.424 8.785-10.317.343-3.972-1.47-8.983.421-12.332-1.505 1.654-4.321 3.922-4.911 6.442 2.372 3.017 2.425 5.612 1.862 8.052z" fill="url(#paint18_linear)"/><path d="M85.656 70.799c.113 1.676.705 5.453.547 9.817.53-4.141-.11-8.792-.099-10.882.002-2.409.2-4.787.98-6.759 1.399-3.567 3.514-6.384 3.955-10.188-.632 6.894-4.935 11.982-4.453 19.296.755-2.86 2.56-4.13 4.305-6.168 1.936-2.244 2.963-5.393 3.227-8.635.306-3.72-1.05-9.178-3.416-12.37.135 5.626-1.266 10.06-3.461 14.77-1.575 3.376-1.846 7.19-1.585 11.119z" fill="url(#paint19_linear)"/><path d="M86.608 88.319c.46-1.284 1.751-5.478 1.751-5.478-.731-1.178-1.718-2.812-2.132-4.436-.83-3.283.459-7.412 2.89-8.983 3.852-2.5 6.462 4.227 5.485 8.04-1.273 4.986-4.963 5.597-5.793 5.715 0 0-.994 2.647-1.326 3.794a2.677 2.677 0 01-.875 1.348zm2.248-8.005c1.175.76 2.958-1.105 3.582-3.768.67-2.855-.07-5.35-1.476-5.961-1.397-.607-2.883 1.135-3.582 3.769-.562 2.136.121 5.083 1.476 5.96z" fill="url(#paint20_linear)"/><path d="M84.452 66.426c.218-1.317.74-3.21.723-4.182-.029-1.773-.166-3.689-.212-5.48-.125-4.85 1.728-8.613 1.858-13.207.702 5.235-.103 16.218-1.658 20.982 4.021-6.57 6.822-18.42 1.196-26.582-.493 6.213-2.839 9.008-3.428 13.736-.647 5.132 1.13 9.89 1.52 14.733z" fill="url(#paint21_linear)"/><path d="M72.8 29.023c-.532-3.602.533-7.092.617-10.702 2.1 3.41 4.184 8.84 3.785 12.828-.274 2.766-2.004 5.091-2.449 7.886-.188.883.081 2.49.534 3.591 1.54 2.815 3.504 6.17 5.318 9.7.102-.843-.061-3.313-.437-4.156-.135-.313-.947-.762-1.925-2.228-1.114-1.672-1.561-3.266-1.785-5.211-.565-4.812 2.515-8.646 5.278-3.09 1.524 3.056 1.112 6.748-.12 9.383-.495 1.06-.53 1.035-.57 2.528-.03.764-.05 2.459-.165 3.318 2.4 4.75 4.47 9.743 4.788 14.065.573 1.032 1.195 2.373 1.306 3.53-.78-1.785-1.6-3.574-2.534-4.558-2.552 1.42-7.392-2.599-8.459-5.75-.935-2.763-.688-7.999 3.098-5.767 3.277 1.937 5.73 9.382 5.516 10.858 0 0 .51.703 1.055 1.68-.788-3.134-1.658-6.14-2.856-8.956-1.13-2.616-2.081-5.041-3.688-7.56-1.011-1.598-3.954-7.388-5.17-8.217-.847-.571-1.412-.984-1.835-1.372-.885.038-2.997-.444-2.997-.444-3.877 1.214-8.356-.663-10.393-4.759-2.383-4.786 1.335-5.569 4.413-4.38 3.215 1.243 6.222 4.494 6.36 8.42.482.39 1.567.53 2.361.918-.534-.573-.794-1.153-1.168-2.21 1.394 2.561 3.003 2.763 4.016 3.585-.13-.44-.3-1.135-.305-1.676.001-.873-.002-.087.117-1.43.238-2.835-1.282-6.881-1.706-9.824zm-7.737 3.868c-2.288-1.6-4.632-1.789-5.236-.407-.614 1.378.748 3.797 3.037 5.397 2.288 1.6 4.631 1.789 5.245.41.605-1.38-.758-3.8-3.046-5.4zM81.5 58.727c-1.1-2.205-3.372-3.431-4.01-2.592-1.079 1.415-.53 3.547.614 5.015 1.486 1.92 3.772 2.872 4.32 2.449.754-.577.478-2.048-.924-4.872zm-1.407-13.433c.957-.214 1.795-1.9 1.467-4.426-.31-2.412-1.58-4.342-2.749-4.3-1.168.042-1.827 2.016-1.477 4.423.358 2.42 1.637 4.558 2.758 4.303z" fill="url(#paint22_linear)"/><path d="M81.92 45.607c-.286 2.14-.759 6.126.811 7.864 1.398-5.102 5.635-15.57-.17-21.314 1.024 4.607-.071 9.133-.64 13.45z" fill="url(#paint23_linear)"/><path d="M59.26 20.69c-1.014-3.589-2.247-8.003-4.278-11.526 2.78-.053 6.992 5.498 8.526 8.03 2.644 4.359 4.079 9.484 4.833 15.602a16.08 16.08 0 00-.836-3.006c-.697-.752-1.92-1.473-2.642-1.99-3.064-2.206-4.47-3.087-5.603-7.11zm8.433 9.326c.096.156.185.299.262.448a1.853 1.853 0 00-.262-.448zm-9.351-17.162c1.871 2.638 1.753 5.938 3 8.758 1.438 3.293 4.33 5.386 6.089 8.01-1.574-3.892-4.266-5.872-5.421-9.028-.991-2.696-2.004-5.432-3.668-7.74z" fill="url(#paint24_linear)"/><path d="M72.35 147.588c2.945 4.746-1.66 6.406-5.567 4.856-2.4-.948-4.47-3.503-5.029-6.161-.875-.349-3.3-.734-3.82-.584l.01-.344c2.093-.33 4.272.253 4.272.253 2.253-2.128 8.014-1.433 10.134 1.98zm-3.634-1.594c-2.032-.658-3.815-.173-3.985 1.089-.163 1.275 1.348 2.819 3.387 3.49 2.041.662 3.826.168 3.987-1.098.16-1.256-1.348-2.819-3.389-3.481z" fill="url(#paint25_linear)"/><path d="M71.092 157.072c.011-.006.029 0 .046.007.092.016.093.007.004-.018-.01.006-.03.008-.05.011z" fill="url(#paint26_linear)"/><path d="M74.516 134.527c-4.298-.111-7.13 4.78-10.956 5.96 4.522-.308 7.258-4.407 11.043-4.783 2.846-.287 6.874 1.719 9.399.836-1.723 1.258-3.326.903-5.335.686-3.961-.432-6.807.789-10.238 2.335 1.896-.233 3.786.943 5.769 1.347 3.956.804 9.762-.357 10.872-5.08-3.472 1.166-6.917-1.207-10.554-1.301z" fill="url(#paint27_linear)"/><path d="M53.163 17c.533.652 2.117 2.786 2.38 4.199 0 0 2.8 1.556 4.435 3.568l.011-.006c.014.026.037.055.05.081.07.079.129.164.188.248 2.082 2.527 9.509 8.413 11.024 13.033-.851-1.587-3.531-5.067-6.25-7.91-2.037-2.13-4.153-3.71-5.195-5.045-2.328-2.625-4.82-3.435-4.82-3.435-2.095.4-6.627.819-8.139-2.706-1.896-4.405 4.108-4.686 6.316-2.027zm-3.259 3.083c1.971.92 3.593.677 3.893.204.527-.821-1.259-2.545-2.41-3.321-1.55-1.048-3.056-.668-3.478.237-.433.92.343 2.118 1.995 2.88z" fill="url(#paint28_linear)"/><path d="M69.022 33.052c1.275 4.166 3.69 6.346 5.926 6.231-3.047-.96-4.667-4.489-5.28-6.648-.629-2.23-.528-4.908-1.783-9.335 2.606 4.708 2.424 11.754 6.84 15.461-1.11-5.587-2.327-13.743-7.58-16.851 1.297 4.918.504 6.677 1.877 11.142z" fill="url(#paint29_linear)"/><path d="M38.432 17.431c2.481 1.508 5.277 1.73 7.837 1.599-2.62.242-1.988 2.188-6.443 1.755 1.596 2.51 7.337 3.41 7.491-.742-.498.713-2.66 2.324-4.335 1.462 1.073-.149 4.008-1.635 3.833-2.94-3.836-.642-6.591-4.668-10.065-5.018 3.907-.026 6.956 1.938 10.065 5.017-.225-2.135-1.16-4.225-2.66-5.659 1.837-.464 3.084 3.11 2.786 4.61l.481-.627c.997-4.726-2.444-4.949-5.42-5.078 1.113.189 2.474 3.519 3.645 5.028-1.652-1.87-3.264-2.767-5.199-3.515-3.438-1.322-5.757-1.456-8.929-4.207 2.281 3.088 3.65 6.327 6.913 8.315z" fill="url(#paint30_linear)"/><path d="M67.88 154.225c-1.651.096-4.274-1.897-6.053-4.242-2.726-3.578-8.056-2.147-10.603-.323 1.573-.313 2.404-.128 3.795.609 1.695.896 3.274 2.513 4.872 3.665 3.498 2.511 8.621 3.754 11.445 3.386-1.495-.168-2.4-1.848-3.456-3.095z" fill="url(#paint31_linear)"/><path d="M61.6 155.903c2.137 1.41 3.978 2.052 6.234 2.49-3.43 2.431-6.451 3.233-10.626 1.908-4.474-1.425-8.326-5.901-12.308-7.529 2.814-.068 5.461.838 8.213 1.956 3.187 1.305 6.23 3.519 9.502 3.722-2.93-.532-5.505-3.989-8.937-5.32-2.976-1.156-9.312-.841-11.2-.631-2.437.508-4.141 1.218-6.745 1.594-1.553.219-1.178.626-2.611-.338-.486-.326-.627-.999-1.11-1.344 2.465.046 5.806.139 8.84-.318 1.846-1.703-.114-7.121.592-9.808 1.405-5.389 6.17-7.107 8.43-13.349 2.097 6.918-.797 20.763-7.59 21.402 2.737-2.892 4.443-8.244 5.321-15.164-2.578 2.564-4.778 5.112-5.477 9.226-.464 2.733.48 5.603-.909 7.631 1.245-.217 2.439-.518 3.486-.964 4.681-4.249 6.534-10.571 5.863-17.749.44-2.253 1.574-4.81 2.75-6.786-.4 1.484.737 4.506.737 4.506-.485 1.482-.923 2.77-1.171 4.623-.366 2.72.122 6.063 1.234 8.81-2.36 2.631-4.88 4.89-8.013 6.273 2.517-.529 5.542-.288 8.143.355 2.713.667 4.906 3.194 7.352 4.804zm-16.949-4.805l-.17.133c.02-.002.042-.015.063-.027a1.18 1.18 0 00.107-.106z" fill="url(#paint32_linear)"/><path d="M82.18 101.388c-.784-3.135-5.66-10.197-10.635-13.186 4.537 4.467 4.15 9.226 4.324 13.347.19 4.55 5.63 7.056 5.874 12.256.182-4.193-1.431-7.86-2.97-9.807-1.917-2.437-1.042-7.128-3-10.686 2.952 4.407 6.137 11.854 6.224 17.824 1.083-3.111 1.1-6.082.183-9.748z" fill="url(#paint33_linear)"/><path d="M81.736 125.346c-4.965-.725-7.924 3.264-9.926 7.716.51-.416 2.066-3.686 3.685-4.878 1.438-1.045 3.591-1.873 5.415-1.883 2.053-.002 4.56 1.184 7.183.662-.69 1.855-5.373 2.566-7.505 2.325-2.827-.312-5.934.436-8.059 3.22 1.859-1.191 3.71-1.243 6.015-1.005 2.267.232 4.629 1.074 6.776.328 1.88-.653 4.938-5.205 6.181-6.74-3.309 2.758-7.583.58-9.765.255z" fill="url(#paint34_linear)"/><path d="M85.527 78.084c-.046-2.342.01-5.418-1.304-7.164-3.045-4.057-9.32-5.892-11.519-9.984 1.021 4.118 4.164 9.304 7.322 11.93 1.465 1.21 3.583 2.046 4.98 3.364-1.112-4.24-5.887-6.787-7.46-9.422 3.923 2.266 6.936 3.61 7.981 11.276z" fill="url(#paint35_linear)"/><path d="M71.704 49.952c2.017.042 3.605-1.12 5.499.642-.762-3.133-4.91-6.587-7.58-7.46-2.589-.85-4.882.083-7.4-1.795 2.215 2.18 5.13 1.894 7.56 2.552 2.583.697 4.213 2.797 5.6 4.85-2.692.485-3.915-2.448-6.155-3.885-.991-.632-6.147-1.873-7.005-3.517 1.45 3.686 4.616 8.511 9.481 8.613z" fill="url(#paint36_linear)"/><path d="M75.04 128.005c1.555-1.86 3.012-4.386 3.954-7.025.406-4.584-2.947-6.456-5.598-8.323-2.91-2.048-4.094-4.948-4.063-8.594.02-2.874 1.707-6.192.001-11.02 3.63 3.237 4.821 9.842 5.322 12.852.64 3.909 2.998 6.444 3.727 10.357.603 1.238.945 2.619.789 4.207.353-1.087.622-2.187.759-3.264.278-2.175-.504-7.448-2.098-8.56 2.642 1.917 2.88 6.763 2.624 8.925-.09.73-.21 1.404-.36 2.044.559-.527 1.374-1.221 1.544-1.648.186-.464-.612-2.171.62-4.379 1.23-2.208 3.507-3.958 6.149-2.71 2.676 1.273 1.554 4.907.13 6.433-1.867 2.013-4.182 2.582-6.776 1.289 0 0-1.223 1.294-1.798 1.545-.878 3.226-2.557 5.425-4.927 7.871zm8.353-11.355c.604.721 2.644.775 3.932-.655 1.288-1.429 1.965-3.291 1.022-4.084-1.229-1.03-2.781-.669-3.986.579-1.334 1.367-1.578 3.416-.968 4.16zm-5.676-1.565c-1.133-2.048-2.868-3.855-3.754-6.018-1.276-3.088-.898-8.04-2.337-10.99 1.164 3.367.606 7.576 1.164 9.768.607 2.449 3.23 4.563 4.927 7.24z" fill="url(#paint37_linear)"/><path d="M68.984 146.129c-1.453-.48-2.735-.126-2.855.789-.12.915.964 2.034 2.427 2.509 1.462.484 2.736.126 2.855-.789.118-.905-.972-2.038-2.427-2.509z" fill="url(#paint38_linear)"/><defs><linearGradient id="paint0_linear" x1="347.366" y1="-225.77" x2="-44.83" y2="46.041" gradientUnits="userSpaceOnUse"><stop stop-color="#B59130"/><stop offset=".5" stop-color="#F1D15F"/><stop offset="1" stop-color="#B59130"/></linearGradient><linearGradient id="paint1_linear" x1="360.328" y1="-209.122" x2="-34.523" y2="63.393" gradientUnits="userSpaceOnUse"><stop stop-color="#B59130"/><stop offset=".5" stop-color="#F1D15F"/><stop offset="1" stop-color="#B59130"/></linearGradient><linearGradient id="paint2_linear" x1="378.998" y1="-210.427" x2="-33.609" y2="72.067" gradientUnits="userSpaceOnUse"><stop stop-color="#B59130"/><stop offset=".5" stop-color="#F1D15F"/><stop offset="1" stop-color="#B59130"/></linearGradient><linearGradient id="paint3_linear" x1="378.325" y1="-190.324" x2="-23.172" y2="84.599" gradientUnits="userSpaceOnUse"><stop stop-color="#B59130"/><stop offset=".5" stop-color="#F1D15F"/><stop offset="1" stop-color="#B59130"/></linearGradient><linearGradient id="paint4_linear" x1="399.336" y1="-182.72" x2="-16.195" y2="102.58" gradientUnits="userSpaceOnUse"><stop stop-color="#B59130"/><stop offset=".5" stop-color="#F1D15F"/><stop offset="1" stop-color="#B59130"/></linearGradient><linearGradient id="paint5_linear" x1="397.53" y1="-176.057" x2="-13.932" y2="105.419" gradientUnits="userSpaceOnUse"><stop stop-color="#B59130"/><stop offset=".5" stop-color="#F1D15F"/><stop offset="1" stop-color="#B59130"/></linearGradient><linearGradient id="paint6_linear" x1="405.875" y1="-154.987" x2="-2.219" y2="123.843" gradientUnits="userSpaceOnUse"><stop stop-color="#B59130"/><stop offset=".5" stop-color="#F1D15F"/><stop offset="1" stop-color="#B59130"/></linearGradient><linearGradient id="paint7_linear" x1="410.715" y1="-161.207" x2="-4.587" y2="123.876" gradientUnits="userSpaceOnUse"><stop stop-color="#B59130"/><stop offset=".5" stop-color="#F1D15F"/><stop offset="1" stop-color="#B59130"/></linearGradient><linearGradient id="paint8_linear" x1="410.722" y1="-159.759" x2="-4.605" y2="125.351" gradientUnits="userSpaceOnUse"><stop stop-color="#B59130"/><stop offset=".5" stop-color="#F1D15F"/><stop offset="1" stop-color="#B59130"/></linearGradient><linearGradient id="paint9_linear" x1="415.855" y1="-160.189" x2="-3.102" y2="128.941" gradientUnits="userSpaceOnUse"><stop stop-color="#B59130"/><stop offset=".5" stop-color="#F1D15F"/><stop offset="1" stop-color="#B59130"/></linearGradient><linearGradient id="paint10_linear" x1="403.124" y1="-170.516" x2="-9.912" y2="112.364" gradientUnits="userSpaceOnUse"><stop stop-color="#B59130"/><stop offset=".5" stop-color="#F1D15F"/><stop offset="1" stop-color="#B59130"/></linearGradient><linearGradient id="paint11_linear" x1="402.993" y1="-166.279" x2="-9.24" y2="115.87" gradientUnits="userSpaceOnUse"><stop stop-color="#B59130"/><stop offset=".5" stop-color="#F1D15F"/><stop offset="1" stop-color="#B59130"/></linearGradient><linearGradient id="paint12_linear" x1="435.382" y1="-163.14" x2="4.31" y2="143.961" gradientUnits="userSpaceOnUse"><stop stop-color="#B59130"/><stop offset=".5" stop-color="#F1D15F"/><stop offset="1" stop-color="#B59130"/></linearGradient><linearGradient id="paint13_linear" x1="363.638" y1="-182.57" x2="-15.877" y2="88.061" gradientUnits="userSpaceOnUse"><stop stop-color="#B59130"/><stop offset=".5" stop-color="#F1D15F"/><stop offset="1" stop-color="#B59130"/></linearGradient><linearGradient id="paint14_linear" x1="348.306" y1="-207.892" x2="-31.797" y2="62.735" gradientUnits="userSpaceOnUse"><stop stop-color="#B59130"/><stop offset=".5" stop-color="#F1D15F"/><stop offset="1" stop-color="#B59130"/></linearGradient><linearGradient id="paint15_linear" x1="418.235" y1="-161.335" x2="-2.282" y2="129.72" gradientUnits="userSpaceOnUse"><stop stop-color="#B59130"/><stop offset=".5" stop-color="#F1D15F"/><stop offset="1" stop-color="#B59130"/></linearGradient><linearGradient id="paint16_linear" x1="429.774" y1="-164.068" x2="1.375" y2="138.426" gradientUnits="userSpaceOnUse"><stop stop-color="#B59130"/><stop offset=".5" stop-color="#F1D15F"/><stop offset="1" stop-color="#B59130"/></linearGradient><linearGradient id="paint17_linear" x1="382.238" y1="-176.061" x2="-14.958" y2="97.144" gradientUnits="userSpaceOnUse"><stop stop-color="#B59130"/><stop offset=".5" stop-color="#F1D15F"/><stop offset="1" stop-color="#B59130"/></linearGradient><linearGradient id="paint18_linear" x1="414.892" y1="-186.402" x2="-12.931" y2="115.158" gradientUnits="userSpaceOnUse"><stop stop-color="#B59130"/><stop offset=".5" stop-color="#F1D15F"/><stop offset="1" stop-color="#B59130"/></linearGradient><linearGradient id="paint19_linear" x1="416.275" y1="-198.328" x2="-16.773" y2="112.359" gradientUnits="userSpaceOnUse"><stop stop-color="#B59130"/><stop offset=".5" stop-color="#F1D15F"/><stop offset="1" stop-color="#B59130"/></linearGradient><linearGradient id="paint20_linear" x1="403.922" y1="-182.865" x2="-15.189" y2="106.465" gradientUnits="userSpaceOnUse"><stop stop-color="#B59130"/><stop offset=".5" stop-color="#F1D15F"/><stop offset="1" stop-color="#B59130"/></linearGradient><linearGradient id="paint21_linear" x1="406.231" y1="-206.126" x2="-23.764" y2="99.064" gradientUnits="userSpaceOnUse"><stop stop-color="#B59130"/><stop offset=".5" stop-color="#F1D15F"/><stop offset="1" stop-color="#B59130"/></linearGradient><linearGradient id="paint22_linear" x1="377.159" y1="-204.114" x2="-30.518" y2="74.422" gradientUnits="userSpaceOnUse"><stop stop-color="#B59130"/><stop offset=".5" stop-color="#F1D15F"/><stop offset="1" stop-color="#B59130"/></linearGradient><linearGradient id="paint23_linear" x1="400.641" y1="-213.721" x2="-28.812" y2="90.512" gradientUnits="userSpaceOnUse"><stop stop-color="#B59130"/><stop offset=".5" stop-color="#F1D15F"/><stop offset="1" stop-color="#B59130"/></linearGradient><linearGradient id="paint24_linear" x1="358.208" y1="-226.888" x2="-45.21" y2="49.03" gradientUnits="userSpaceOnUse"><stop stop-color="#B59130"/><stop offset=".5" stop-color="#F1D15F"/><stop offset="1" stop-color="#B59130"/></linearGradient><linearGradient id="paint25_linear" x1="400.453" y1="-126.325" x2="10.929" y2="145.026" gradientUnits="userSpaceOnUse"><stop stop-color="#B59130"/><stop offset=".5" stop-color="#F1D15F"/><stop offset="1" stop-color="#B59130"/></linearGradient><linearGradient id="paint26_linear" x1="407.693" y1="-111.791" x2="22.845" y2="163.436" gradientUnits="userSpaceOnUse"><stop stop-color="#B59130"/><stop offset=".5" stop-color="#F1D15F"/><stop offset="1" stop-color="#B59130"/></linearGradient><linearGradient id="paint27_linear" x1="402.501" y1="-132.6" x2="8.329" y2="139.708" gradientUnits="userSpaceOnUse"><stop stop-color="#B59130"/><stop offset=".5" stop-color="#F1D15F"/><stop offset="1" stop-color="#B59130"/></linearGradient><linearGradient id="paint28_linear" x1="352.644" y1="-213.556" x2="-36.535" y2="57.751" gradientUnits="userSpaceOnUse"><stop stop-color="#B59130"/><stop offset=".5" stop-color="#F1D15F"/><stop offset="1" stop-color="#B59130"/></linearGradient><linearGradient id="paint29_linear" x1="368.55" y1="-218.336" x2="-39.381" y2="60.382" gradientUnits="userSpaceOnUse"><stop stop-color="#B59130"/><stop offset=".5" stop-color="#F1D15F"/><stop offset="1" stop-color="#B59130"/></linearGradient><linearGradient id="paint30_linear" x1="342.337" y1="-235.343" x2="-51.778" y2="36.94" gradientUnits="userSpaceOnUse"><stop stop-color="#B59130"/><stop offset=".5" stop-color="#F1D15F"/><stop offset="1" stop-color="#B59130"/></linearGradient><linearGradient id="paint31_linear" x1="396.81" y1="-114.37" x2="18.684" y2="156.267" gradientUnits="userSpaceOnUse"><stop stop-color="#B59130"/><stop offset=".5" stop-color="#F1D15F"/><stop offset="1" stop-color="#B59130"/></linearGradient><linearGradient id="paint32_linear" x1="402.677" y1="-143.501" x2=".646" y2="131.695" gradientUnits="userSpaceOnUse"><stop stop-color="#B59130"/><stop offset=".5" stop-color="#F1D15F"/><stop offset="1" stop-color="#B59130"/></linearGradient><linearGradient id="paint33_linear" x1="399.176" y1="-168.784" x2="-10.462" y2="111.198" gradientUnits="userSpaceOnUse"><stop stop-color="#B59130"/><stop offset=".5" stop-color="#F1D15F"/><stop offset="1" stop-color="#B59130"/></linearGradient><linearGradient id="paint34_linear" x1="404.766" y1="-140.755" x2="4.545" y2="133.608" gradientUnits="userSpaceOnUse"><stop stop-color="#B59130"/><stop offset=".5" stop-color="#F1D15F"/><stop offset="1" stop-color="#B59130"/></linearGradient><linearGradient id="paint35_linear" x1="379.633" y1="-180.159" x2="-17.279" y2="92.953" gradientUnits="userSpaceOnUse"><stop stop-color="#B59130"/><stop offset=".5" stop-color="#F1D15F"/><stop offset="1" stop-color="#B59130"/></linearGradient><linearGradient id="paint36_linear" x1="362.105" y1="-191.046" x2="-21.998" y2="79.752" gradientUnits="userSpaceOnUse"><stop stop-color="#B59130"/><stop offset=".5" stop-color="#F1D15F"/><stop offset="1" stop-color="#B59130"/></linearGradient><linearGradient id="paint37_linear" x1="400.059" y1="-163.473" x2="-8.123" y2="115.421" gradientUnits="userSpaceOnUse"><stop stop-color="#B59130"/><stop offset=".5" stop-color="#F1D15F"/><stop offset="1" stop-color="#B59130"/></linearGradient><linearGradient id="paint38_linear" x1="403.163" y1="-128.56" x2="9.792" y2="143.536" gradientUnits="userSpaceOnUse"><stop stop-color="#B59130"/><stop offset=".5" stop-color="#F1D15F"/><stop offset="1" stop-color="#B59130"/></linearGradient></defs></svg>