<svg width="114" height="174" fill="none" xmlns="http://www.w3.org/2000/svg"><path d="M64.28 18.944c-1.33.616-2.422.455-2.626.135-.361-.547.85-1.724 1.62-2.25 1.044-.718 2.07-.459 2.349.151.293.636-.232 1.445-1.344 1.964z" fill="url(#paint0_linear)"/><path d="M49.42 33.624c1.458-1.014 2.965-1.132 3.352-.259.387.874-.477 2.408-1.944 3.426-1.46 1.004-2.966 1.132-3.352.259-.387-.874.488-2.402 1.944-3.426z" fill="url(#paint1_linear)"/><path d="M34.145 39.439c.23-1.75 1.157-3.152 2.012-3.129.854.024 1.327 1.467 1.069 3.218-.259 1.752-1.185 3.317-2.002 3.125-.703-.161-1.321-1.382-1.079-3.214z" fill="url(#paint2_linear)"/><path d="M37.773 56.766c.73.955.362 2.4-.419 3.395-1.011 1.302-2.551 1.95-2.934 1.659-.508-.398-.322-1.386.632-3.29.75-1.515 2.288-2.32 2.721-1.764z" fill="url(#paint3_linear)"/><path d="M25.65 77.747c-.806.524-2.02-.761-2.448-2.584-.456-1.965.052-3.684 1.008-4.104.958-.41 1.973.78 2.45 2.594.383 1.478-.077 3.497-1.01 4.094z" fill="url(#paint4_linear)"/><path d="M34.725 85.203c.8.066 1.187 1.475.867 3.15-.323 1.664-1.23 2.946-2.03 2.88-.803-.076-1.19-1.485-.867-3.15.322-1.664 1.228-2.956 2.03-2.88z" fill="url(#paint5_linear)"/><path d="M28.408 113.77c-.852-.937-1.29-2.162-.677-2.682.806-.684 1.829-.442 2.629.376.876.907 1.035 2.256.64 2.74-.398.475-1.742.493-2.592-.434z" fill="url(#paint6_linear)"/><path d="M40.07 119.69c-.167-1.545.323-2.993 1.113-3.236.79-.244 1.57.811 1.739 2.365.168 1.555-.324 2.993-1.114 3.236-.79.244-1.561-.815-1.738-2.365z" fill="url(#paint7_linear)"/><path d="M57.979 137.871c-1.062.332-2.126-1.112-2.347-3.204-.233-2.098.446-4.072 1.508-4.404 1.064-.322 2.126 1.112 2.36 3.221.221 2.092-.45 4.052-1.521 4.387z" fill="url(#paint8_linear)"/><path d="M59.186 144.14c1.217-.855 2.189-5.341 2.275-7.617.133-3.343-1.698-10.497-5.894-7.934-3.075 1.891-2.861 9.598-1.78 12.285 1.273 3.152 3.444 3.535 4.776 3.694 0 0 .194.904 1.036 1.978.323.421.545.685.689.749l.585-.049c-1.206-.816-1.687-3.106-1.687-3.106zm-1.078-3.925c-1.506.452-2.994-1.564-3.321-4.523-.328-2.958.631-5.729 2.137-6.182 1.504-.462 3.003 1.561 3.33 4.519.317 2.952-.642 5.723-2.146 6.186z" fill="url(#paint9_linear)"/><path d="M17.6 79.886c2.768 7.344 5.092 8.168 6.232 9.887.94 1.452 1.249 2.396 1.83 4.037.391 1.118 3.005 4.65 4.151 5.833.244 1.843.603 3.618 1.11 5.235-.918-1.538-2.179-3.012-3.317-4.001-2.94-2.538-6.348-1.634-9.826-.833 2.204 1.386 1.184 4.277 3.828 5.484 3.383 1.551 8.179 1.175 10.51 4.68-.823-2.394-3.198-3.437-5.19-4.483-2.956-1.549-5.102-2.424-7.083-5.385 2.07-.098 4.718-.268 6.6.681 1.53.754 3.453 2.898 4.602 5.236.637 1.312.842 2.593 1.083 3.958-.01-1.764.172-2.308-.32-3.592-.064-.181-.16-.371-.243-.545-.408-1.515-.714-3.115-.95-4.765-.387-3.945 2.076-6.277 2.076-6.277 1.87-1.502 3.319-2.461 4.383-5.436.62-1.725.876-5.048.129-6.523-2.07-4.103-5.8.51-6.374 4.181-.463 2.862.305 5.224 1.113 7.536-.42.858-1.258 2.53-1.648 4.009-.747-7.325-.388-15.185-.838-20.23.22 4.254-.648 13.074.312 20.738-1.086-2.058-1.307-5.286-1.703-7.515-.435-2.431-1.458-4.525-3.008-6.111-1.563-1.603-5.147-2.548-8.076-8.146.152 4.576 1.645 8.662 2.43 11.628.843 3.226 2.968 6.837 5.625 8.06 1.27.587 2.795.645 3.654 1.932-1.07-2.03-2.622-3.158-4.268-4.628-2.78-2.538-5.537-8.839-6.825-14.645zm14.77 7.61c.47-2.461 1.809-4.358 2.997-4.251 1.188.107 1.763 2.186 1.282 4.64-.471 2.451-1.818 4.362-2.999 4.241-1.185-.097-1.76-2.176-1.28-4.63z" fill="url(#paint10_linear)"/><path d="M50.44 124.162c-.953-1.574-3.873-3.274-3.565-6.21-.594.971-1.165 1.704-1.548 3.211.587-4.727 3.369-11.664 6.889-13.028-3.17 6.614.26 11.082-1.777 16.027z" fill="url(#paint11_linear)"/><path d="M45.496 123.94c-.875 7.004 1.981 10.922 3.77 14.38-4.065-.783-5.986-6.606-3.77-14.38z" fill="url(#paint12_linear)"/><path d="M45.94 52.576c-1.926.88-4.45.767-6.17.38-1.672-.377-3.198-.869-4.734.234 3.564-5.642 8.144-.922 12.005-4.04 1.054.28 3.12-.832 3.76-.992-1.57 2.382-3.262 3.685-4.862 4.418z" fill="url(#paint13_linear)"/><path d="M51.391 29.36c2.97-3.716 8.594-1.266 12.024-3.934-2.215 1.589-9.321.144-12.024 3.935 1.344-3.25 6.079-4.476 8.464-4.694 2.256-.208 4.994-.158 6.987-1.175-1.836 2.511-4.273 5.197-7.17 5.754-2.89.545-5.346-1.002-8.28.115z" fill="url(#paint14_linear)"/><path d="M43.345 132.802c-.87-1.09-1.593-3.467-1.601-4.404 7.598-6.606.41-20.563-3.442-10.105-1.278 3.468-.597 7.467 2.314 10.094.088.086.114.064.177.183.902 1.729 1.656 3.74 2.708 5.253l-.156-1.021zm-1.19-8.576c-1.217.367-2.424-1.261-2.69-3.634-.265-2.373.51-4.61 1.727-4.977s2.424 1.262 2.682 3.648c.264 2.362-.502 4.596-1.719 4.963z" fill="url(#paint15_linear)"/><path d="M54.567 143.198c-3.008-5.119-1.546-8.058-1.624-11.744-.112-5.297-4.233-7.671-5.883-11.847-3.65 7.876.769 18.452 6.055 22.383.252.483 1.113.815 1.452 1.208zm-2.287-3.32c-2.331-5.666-4.254-11.492-5.037-17.857 4.146 5.264 3.546 12.734 5.037 17.857z" fill="url(#paint16_linear)"/><path d="M28.742 82.801c-.12-3.513 2.543-5.942 4.644-7.368 3.572-2.418 6.105-4.333 7.489-9.052.1 3.804-.21 7.114-3.05 10.306-2.55 2.865-6.193 2.379-8.652 5.028 1.245-4.453 6.56-4.747 8.531-8.29-3.173 2.803-8.082 3.468-8.962 9.376z" fill="url(#paint17_linear)"/><path d="M19.78 76.559c.79 3.38 3.24 4.842 6.157 8.155-4.003-3.097-8.294-4.425-8.785-10.318-.343-3.97 1.47-8.983-.421-12.332 1.505 1.655 4.322 3.923 4.911 6.443-2.372 3.017-2.425 5.611-1.861 8.052z" fill="url(#paint18_linear)"/><path d="M29.16 70.269c-.113 1.676-.704 5.452-.547 9.816-.53-4.14.111-8.791.099-10.881-.001-2.41-.2-4.787-.98-6.76-1.398-3.566-3.514-6.383-3.954-10.187.632 6.894 4.934 11.981 4.452 19.295-.754-2.86-2.56-4.13-4.305-6.167-1.936-2.244-2.962-5.393-3.227-8.635-.306-3.72 1.05-9.178 3.416-12.37-.135 5.626 1.267 10.06 3.462 14.77 1.574 3.376 1.846 7.189 1.585 11.119z" fill="url(#paint19_linear)"/><path d="M28.208 87.788c-.459-1.283-1.75-5.477-1.75-5.477.73-1.178 1.718-2.813 2.131-4.437.831-3.283-.458-7.411-2.89-8.982-3.852-2.5-6.461 4.226-5.485 8.04 1.273 4.985 4.963 5.596 5.793 5.715 0 0 .994 2.646 1.326 3.793.253.892.875 1.348.875 1.348zm-2.248-8.004c-1.175.76-2.957-1.105-3.581-3.769-.671-2.854.07-5.35 1.475-5.96 1.397-.608 2.883 1.135 3.582 3.768.563 2.136-.121 5.084-1.476 5.96z" fill="url(#paint20_linear)"/><path d="M30.365 65.896c-.219-1.317-.741-3.21-.723-4.182.028-1.773.165-3.69.211-5.48.125-4.851-1.727-8.613-1.857-13.207-.703 5.234.102 16.217 1.658 20.982-4.022-6.57-6.823-18.42-1.197-26.582.493 6.213 2.84 9.007 3.428 13.736.648 5.132-1.13 9.89-1.52 14.733z" fill="url(#paint21_linear)"/><path d="M42.016 28.492c.532-3.601-.533-7.092-.616-10.701-2.1 3.41-4.185 8.84-3.785 12.827.273 2.767 2.003 5.092 2.448 7.886.188.883-.08 2.491-.534 3.592-1.54 2.815-3.504 6.17-5.317 9.7-.102-.843.06-3.313.436-4.156.135-.314.947-.763 1.925-2.228 1.115-1.672 1.562-3.266 1.786-5.211.564-4.812-2.516-8.646-5.279-3.09-1.523 3.056-1.112 6.748.121 9.383.495 1.06.529 1.035.57 2.527.028.765.05 2.46.164 3.319-2.4 4.75-4.47 9.743-4.787 14.065-.574 1.031-1.196 2.373-1.307 3.529.781-1.784 1.6-3.573 2.534-4.557 2.552 1.42 7.392-2.6 8.459-5.75.936-2.763.689-7.999-3.098-5.768-3.277 1.938-5.729 9.383-5.516 10.859 0 0-.51.703-1.054 1.68.787-3.134 1.657-6.14 2.856-8.957 1.13-2.616 2.08-5.04 3.687-7.56 1.012-1.597 3.954-7.387 5.171-8.217.847-.57 1.411-.984 1.835-1.372.885.039 2.996-.443 2.996-.443 3.878 1.213 8.356-.663 10.393-4.76 2.383-4.785-1.334-5.568-4.413-4.38-3.214 1.244-6.222 4.495-6.36 8.422-.482.39-1.567.53-2.36.917.534-.573.794-1.153 1.167-2.21-1.393 2.56-3.002 2.763-4.016 3.585.13-.441.3-1.136.305-1.676 0-.873.003-.088-.117-1.43-.238-2.835 1.282-6.882 1.706-9.825zm7.737 3.868c2.289-1.6 4.632-1.788 5.236-.406.614 1.378-.748 3.797-3.036 5.397-2.289 1.6-4.632 1.788-5.245.41-.605-1.381.757-3.8 3.045-5.4zM33.316 58.197c1.1-2.205 3.373-3.432 4.01-2.592 1.08 1.415.53 3.547-.614 5.015-1.486 1.92-3.771 2.872-4.32 2.449-.753-.578-.478-2.048.924-4.872zm1.408-13.434c-.957-.214-1.795-1.9-1.468-4.426.31-2.412 1.581-4.34 2.75-4.299 1.167.042 1.827 2.016 1.476 4.423-.358 2.42-1.637 4.558-2.758 4.302z" fill="url(#paint22_linear)"/><path d="M32.896 45.077c.287 2.14.76 6.126-.811 7.864-1.398-5.102-5.634-15.57.17-21.314-1.023 4.607.071 9.132.641 13.45z" fill="url(#paint23_linear)"/><path d="M55.557 20.16c1.014-3.59 2.247-8.003 4.277-11.527-2.78-.052-6.991 5.498-8.526 8.03-2.643 4.36-4.078 9.485-4.832 15.602.198-1.136.495-2.11.836-3.005.696-.752 1.92-1.474 2.641-1.991 3.064-2.206 4.47-3.086 5.604-7.108zm-8.434 9.326c-.095.156-.184.299-.262.448a1.85 1.85 0 01.262-.448zm9.352-17.162c-1.872 2.637-1.754 5.937-3.001 8.758-1.438 3.293-4.33 5.386-6.088 8.01 1.574-3.893 4.266-5.872 5.42-9.029.992-2.695 2.005-5.431 3.669-7.74z" fill="url(#paint24_linear)"/><path d="M42.467 147.058c-2.945 4.746 1.66 6.405 5.566 4.856 2.4-.948 4.47-3.503 5.029-6.161.875-.35 3.3-.735 3.82-.584l-.01-.344c-2.093-.331-4.272.253-4.272.253-2.253-2.128-8.014-1.434-10.133 1.98zm3.633-1.594c2.033-.658 3.816-.173 3.985 1.089.163 1.275-1.348 2.819-3.387 3.49-2.041.662-3.826.167-3.987-1.098-.16-1.256 1.348-2.819 3.39-3.481z" fill="url(#paint25_linear)"/><path d="M43.724 156.541c-.01-.006-.028.001-.046.008-.091.016-.093.006-.003-.018.01.005.03.008.049.01z" fill="url(#paint26_linear)"/><path d="M40.3 133.997c4.298-.111 7.13 4.78 10.956 5.959-4.522-.307-7.258-4.406-11.042-4.782-2.847-.287-6.875 1.719-9.4.836 1.724 1.257 3.326.903 5.335.686 3.961-.432 6.807.789 10.239 2.335-1.897-.234-3.787.943-5.77 1.346-3.955.804-9.762-.356-10.871-5.079 3.471 1.166 6.916-1.207 10.553-1.301z" fill="url(#paint27_linear)"/><path d="M61.653 16.47c-.533.652-2.117 2.786-2.38 4.198 0 0-2.8 1.557-4.435 3.568l-.01-.006c-.015.026-.037.056-.051.082-.07.078-.128.163-.187.248-2.083 2.527-9.51 8.412-11.025 13.032.852-1.586 3.531-5.066 6.25-7.909 2.038-2.13 4.154-3.71 5.195-5.045 2.328-2.625 4.82-3.436 4.82-3.436 2.096.4 6.628.82 8.139-2.706 1.897-4.404-4.108-4.685-6.316-2.026zm3.259 3.083c-1.971.919-3.593.677-3.892.204-.528-.821 1.258-2.546 2.409-3.321 1.55-1.048 3.057-.668 3.478.236.434.92-.342 2.119-1.995 2.88z" fill="url(#paint28_linear)"/><path d="M45.794 32.522c-1.275 4.165-3.689 6.346-5.926 6.231 3.047-.96 4.667-4.489 5.28-6.648.63-2.23.529-4.908 1.783-9.335-2.606 4.707-2.424 11.754-6.84 15.461 1.11-5.588 2.328-13.743 7.58-16.852-1.297 4.92-.503 6.678-1.877 11.143z" fill="url(#paint29_linear)"/><path d="M76.385 16.901c-2.482 1.508-5.278 1.73-7.838 1.598 2.62.243 1.989 2.19 6.443 1.756-1.595 2.51-7.336 3.41-7.491-.742.498.713 2.66 2.323 4.336 1.462-1.074-.15-4.009-1.635-3.833-2.941 3.835-.641 6.59-4.667 10.064-5.017-3.907-.026-6.955 1.938-10.064 5.017.224-2.135 1.16-4.225 2.659-5.659-1.836-.465-3.084 3.11-2.785 4.61l-.482-.627c-.997-4.726 2.445-4.95 5.42-5.078-1.113.189-2.474 3.518-3.645 5.028 1.652-1.87 3.264-2.767 5.199-3.515 3.438-1.322 5.757-1.457 8.93-4.208-2.282 3.088-3.651 6.328-6.913 8.316z" fill="url(#paint30_linear)"/><path d="M46.937 153.695c1.65.096 4.273-1.897 6.052-4.242 2.726-3.578 8.057-2.147 10.603-.323-1.573-.313-2.403-.128-3.794.609-1.696.895-3.275 2.513-4.872 3.665-3.499 2.511-8.622 3.754-11.446 3.386 1.496-.168 2.4-1.848 3.457-3.095z" fill="url(#paint31_linear)"/><path d="M53.217 155.372c-2.138 1.411-3.979 2.053-6.234 2.491 3.429 2.431 6.45 3.232 10.626 1.908 4.473-1.425 8.325-5.901 12.308-7.53-2.814-.067-5.462.838-8.213 1.956-3.187 1.306-6.23 3.52-9.503 3.723 2.931-.532 5.505-3.989 8.938-5.32 2.975-1.156 9.311-.841 11.2-.631 2.436.508 4.14 1.218 6.744 1.594 1.553.219 1.178.626 2.611-.339.487-.325.628-.998 1.11-1.343-2.465.045-5.806.139-8.839-.318-1.846-1.704.113-7.121-.593-9.809-1.404-5.389-6.17-7.107-8.43-13.348-2.097 6.917.798 20.763 7.59 21.402-2.737-2.893-4.442-8.244-5.321-15.164 2.579 2.564 4.779 5.112 5.478 9.226.464 2.733-.48 5.602.908 7.63-1.245-.216-2.438-.518-3.486-.963-4.68-4.249-6.533-10.571-5.863-17.749-.44-2.254-1.573-4.81-2.75-6.786.4 1.484-.737 4.506-.737 4.506.485 1.481.923 2.769 1.172 4.623.365 2.72-.123 6.063-1.235 8.809 2.36 2.632 4.88 4.89 8.013 6.273-2.517-.528-5.541-.287-8.143.356-2.712.666-4.906 3.194-7.351 4.803zm16.948-4.804l.17.133a.191.191 0 01-.063-.028 1.147 1.147 0 01-.107-.105z" fill="url(#paint32_linear)"/><path d="M32.636 100.858c.784-3.135 5.66-10.198 10.636-13.186-4.538 4.467-4.15 9.225-4.324 13.347-.19 4.55-5.631 7.056-5.874 12.256-.182-4.193 1.43-7.86 2.97-9.808 1.916-2.436 1.042-7.127 2.999-10.685-2.952 4.407-6.137 11.854-6.223 17.824-1.084-3.112-1.101-6.083-.184-9.748z" fill="url(#paint33_linear)"/><path d="M33.08 124.816c4.965-.725 7.925 3.264 9.927 7.715-.511-.416-2.067-3.685-3.686-4.878-1.437-1.044-3.59-1.872-5.415-1.883-2.053-.002-4.56 1.185-7.182.663.69 1.855 5.373 2.566 7.504 2.325 2.827-.312 5.934.435 8.06 3.22-1.86-1.191-3.71-1.243-6.015-1.006-2.268.233-4.63 1.075-6.777.329-1.88-.653-4.938-5.205-6.18-6.741 3.308 2.759 7.582.581 9.765.256z" fill="url(#paint34_linear)"/><path d="M29.29 77.554c.045-2.343-.011-5.418 1.303-7.164 3.045-4.057 9.32-5.892 11.52-9.984-1.022 4.118-4.165 9.304-7.322 11.93-1.465 1.21-3.584 2.046-4.98 3.364 1.112-4.24 5.886-6.787 7.46-9.422-3.924 2.266-6.936 3.61-7.982 11.276z" fill="url(#paint35_linear)"/><path d="M43.112 49.421c-2.016.043-3.604-1.119-5.498.643.761-3.133 4.91-6.588 7.58-7.46 2.588-.85 4.881.082 7.4-1.795-2.216 2.18-5.131 1.894-7.562 2.551-2.581.697-4.212 2.797-5.598 4.851 2.692.485 3.915-2.449 6.154-3.885.992-.632 6.148-1.873 7.005-3.517-1.45 3.686-4.616 8.51-9.48 8.612z" fill="url(#paint36_linear)"/><path d="M39.777 127.474c-1.555-1.86-3.013-4.386-3.955-7.024-.405-4.584 2.947-6.457 5.598-8.324 2.91-2.047 4.095-4.947 4.063-8.594-.02-2.873-1.707-6.19-.001-11.02-3.63 3.238-4.821 9.843-5.321 12.852-.641 3.91-2.999 6.445-3.727 10.357-.604 1.239-.946 2.619-.79 4.207-.353-1.086-.621-2.186-.758-3.263-.278-2.176.503-7.448 2.097-8.561-2.641 1.917-2.88 6.763-2.623 8.926.09.729.209 1.404.36 2.044-.56-.528-1.375-1.221-1.544-1.649-.186-.464.611-2.17-.62-4.378-1.231-2.208-3.507-3.958-6.15-2.71-2.676 1.273-1.553 4.907-.13 6.432 1.867 2.014 4.182 2.583 6.776 1.289 0 0 1.223 1.294 1.798 1.546.879 3.226 2.557 5.424 4.927 7.87zm-8.353-11.354c-.605.721-2.645.774-3.933-.655-1.287-1.429-1.964-3.291-1.022-4.085 1.229-1.029 2.782-.668 3.986.58 1.334 1.367 1.578 3.415.969 4.16zm5.676-1.566c1.132-2.047 2.867-3.854 3.753-6.018 1.276-3.088.899-8.039 2.338-10.989-1.165 3.367-.607 7.576-1.165 9.767-.607 2.449-3.23 4.564-4.926 7.24z" fill="url(#paint37_linear)"/><path d="M45.832 145.599c1.453-.481 2.736-.126 2.855.789.12.915-.963 2.034-2.427 2.508-1.462.485-2.735.127-2.855-.788-.118-.906.972-2.038 2.427-2.509z" fill="url(#paint38_linear)"/><defs><linearGradient id="paint0_linear" x1="-232.549" y1="-226.3" x2="159.646" y2="45.511" gradientUnits="userSpaceOnUse"><stop stop-color="#B59130"/><stop offset=".5" stop-color="#F1D15F"/><stop offset="1" stop-color="#B59130"/></linearGradient><linearGradient id="paint1_linear" x1="-245.514" y1="-209.651" x2="149.337" y2="62.867" gradientUnits="userSpaceOnUse"><stop stop-color="#B59130"/><stop offset=".5" stop-color="#F1D15F"/><stop offset="1" stop-color="#B59130"/></linearGradient><linearGradient id="paint2_linear" x1="-264.178" y1="-210.956" x2="148.426" y2="71.532" gradientUnits="userSpaceOnUse"><stop stop-color="#B59130"/><stop offset=".5" stop-color="#F1D15F"/><stop offset="1" stop-color="#B59130"/></linearGradient><linearGradient id="paint3_linear" x1="-263.508" y1="-190.855" x2="137.989" y2="84.067" gradientUnits="userSpaceOnUse"><stop stop-color="#B59130"/><stop offset=".5" stop-color="#F1D15F"/><stop offset="1" stop-color="#B59130"/></linearGradient><linearGradient id="paint4_linear" x1="-284.524" y1="-183.25" x2="131.009" y2="102.055" gradientUnits="userSpaceOnUse"><stop stop-color="#B59130"/><stop offset=".5" stop-color="#F1D15F"/><stop offset="1" stop-color="#B59130"/></linearGradient><linearGradient id="paint5_linear" x1="-282.71" y1="-176.586" x2="128.75" y2="104.885" gradientUnits="userSpaceOnUse"><stop stop-color="#B59130"/><stop offset=".5" stop-color="#F1D15F"/><stop offset="1" stop-color="#B59130"/></linearGradient><linearGradient id="paint6_linear" x1="-291.064" y1="-155.516" x2="117.032" y2="123.32" gradientUnits="userSpaceOnUse"><stop stop-color="#B59130"/><stop offset=".5" stop-color="#F1D15F"/><stop offset="1" stop-color="#B59130"/></linearGradient><linearGradient id="paint7_linear" x1="-295.909" y1="-161.737" x2="119.398" y2="123.358" gradientUnits="userSpaceOnUse"><stop stop-color="#B59130"/><stop offset=".5" stop-color="#F1D15F"/><stop offset="1" stop-color="#B59130"/></linearGradient><linearGradient id="paint8_linear" x1="-295.906" y1="-160.289" x2="119.421" y2="124.821" gradientUnits="userSpaceOnUse"><stop stop-color="#B59130"/><stop offset=".5" stop-color="#F1D15F"/><stop offset="1" stop-color="#B59130"/></linearGradient><linearGradient id="paint9_linear" x1="-301.04" y1="-160.719" x2="117.917" y2="128.412" gradientUnits="userSpaceOnUse"><stop stop-color="#B59130"/><stop offset=".5" stop-color="#F1D15F"/><stop offset="1" stop-color="#B59130"/></linearGradient><linearGradient id="paint10_linear" x1="-288.309" y1="-171.046" x2="124.727" y2="111.835" gradientUnits="userSpaceOnUse"><stop stop-color="#B59130"/><stop offset=".5" stop-color="#F1D15F"/><stop offset="1" stop-color="#B59130"/></linearGradient><linearGradient id="paint11_linear" x1="-288.178" y1="-166.809" x2="124.055" y2="115.342" gradientUnits="userSpaceOnUse"><stop stop-color="#B59130"/><stop offset=".5" stop-color="#F1D15F"/><stop offset="1" stop-color="#B59130"/></linearGradient><linearGradient id="paint12_linear" x1="-320.565" y1="-163.669" x2="110.505" y2="143.432" gradientUnits="userSpaceOnUse"><stop stop-color="#B59130"/><stop offset=".5" stop-color="#F1D15F"/><stop offset="1" stop-color="#B59130"/></linearGradient><linearGradient id="paint13_linear" x1="-248.822" y1="-183.1" x2="130.694" y2="87.53" gradientUnits="userSpaceOnUse"><stop stop-color="#B59130"/><stop offset=".5" stop-color="#F1D15F"/><stop offset="1" stop-color="#B59130"/></linearGradient><linearGradient id="paint14_linear" x1="-233.491" y1="-208.422" x2="146.613" y2="62.206" gradientUnits="userSpaceOnUse"><stop stop-color="#B59130"/><stop offset=".5" stop-color="#F1D15F"/><stop offset="1" stop-color="#B59130"/></linearGradient><linearGradient id="paint15_linear" x1="-303.422" y1="-161.865" x2="117.096" y2="129.194" gradientUnits="userSpaceOnUse"><stop stop-color="#B59130"/><stop offset=".5" stop-color="#F1D15F"/><stop offset="1" stop-color="#B59130"/></linearGradient><linearGradient id="paint16_linear" x1="-314.95" y1="-164.599" x2="113.446" y2="137.887" gradientUnits="userSpaceOnUse"><stop stop-color="#B59130"/><stop offset=".5" stop-color="#F1D15F"/><stop offset="1" stop-color="#B59130"/></linearGradient><linearGradient id="paint17_linear" x1="-267.421" y1="-176.591" x2="129.775" y2="96.614" gradientUnits="userSpaceOnUse"><stop stop-color="#B59130"/><stop offset=".5" stop-color="#F1D15F"/><stop offset="1" stop-color="#B59130"/></linearGradient><linearGradient id="paint18_linear" x1="-300.075" y1="-186.932" x2="127.747" y2="114.628" gradientUnits="userSpaceOnUse"><stop stop-color="#B59130"/><stop offset=".5" stop-color="#F1D15F"/><stop offset="1" stop-color="#B59130"/></linearGradient><linearGradient id="paint19_linear" x1="-301.462" y1="-198.858" x2="131.588" y2="111.833" gradientUnits="userSpaceOnUse"><stop stop-color="#B59130"/><stop offset=".5" stop-color="#F1D15F"/><stop offset="1" stop-color="#B59130"/></linearGradient><linearGradient id="paint20_linear" x1="-289.106" y1="-183.395" x2="130.006" y2="105.934" gradientUnits="userSpaceOnUse"><stop stop-color="#B59130"/><stop offset=".5" stop-color="#F1D15F"/><stop offset="1" stop-color="#B59130"/></linearGradient><linearGradient id="paint21_linear" x1="-291.415" y1="-206.656" x2="138.58" y2="98.534" gradientUnits="userSpaceOnUse"><stop stop-color="#B59130"/><stop offset=".5" stop-color="#F1D15F"/><stop offset="1" stop-color="#B59130"/></linearGradient><linearGradient id="paint22_linear" x1="-262.343" y1="-204.644" x2="145.334" y2="73.893" gradientUnits="userSpaceOnUse"><stop stop-color="#B59130"/><stop offset=".5" stop-color="#F1D15F"/><stop offset="1" stop-color="#B59130"/></linearGradient><linearGradient id="paint23_linear" x1="-285.827" y1="-214.251" x2="143.627" y2="89.984" gradientUnits="userSpaceOnUse"><stop stop-color="#B59130"/><stop offset=".5" stop-color="#F1D15F"/><stop offset="1" stop-color="#B59130"/></linearGradient><linearGradient id="paint24_linear" x1="-243.388" y1="-227.418" x2="160.027" y2="48.497" gradientUnits="userSpaceOnUse"><stop stop-color="#B59130"/><stop offset=".5" stop-color="#F1D15F"/><stop offset="1" stop-color="#B59130"/></linearGradient><linearGradient id="paint25_linear" x1="-285.635" y1="-126.855" x2="103.888" y2="144.494" gradientUnits="userSpaceOnUse"><stop stop-color="#B59130"/><stop offset=".5" stop-color="#F1D15F"/><stop offset="1" stop-color="#B59130"/></linearGradient><linearGradient id="paint26_linear" x1="-293.06" y1="-112.425" x2="91.945" y2="162.983" gradientUnits="userSpaceOnUse"><stop stop-color="#B59130"/><stop offset=".5" stop-color="#F1D15F"/><stop offset="1" stop-color="#B59130"/></linearGradient><linearGradient id="paint27_linear" x1="-287.684" y1="-133.13" x2="106.488" y2="139.178" gradientUnits="userSpaceOnUse"><stop stop-color="#B59130"/><stop offset=".5" stop-color="#F1D15F"/><stop offset="1" stop-color="#B59130"/></linearGradient><linearGradient id="paint28_linear" x1="-237.828" y1="-214.086" x2="151.351" y2="57.221" gradientUnits="userSpaceOnUse"><stop stop-color="#B59130"/><stop offset=".5" stop-color="#F1D15F"/><stop offset="1" stop-color="#B59130"/></linearGradient><linearGradient id="paint29_linear" x1="-253.734" y1="-218.866" x2="154.197" y2="59.852" gradientUnits="userSpaceOnUse"><stop stop-color="#B59130"/><stop offset=".5" stop-color="#F1D15F"/><stop offset="1" stop-color="#B59130"/></linearGradient><linearGradient id="paint30_linear" x1="-227.519" y1="-235.873" x2="166.595" y2="36.408" gradientUnits="userSpaceOnUse"><stop stop-color="#B59130"/><stop offset=".5" stop-color="#F1D15F"/><stop offset="1" stop-color="#B59130"/></linearGradient><linearGradient id="paint31_linear" x1="-281.995" y1="-114.9" x2="96.131" y2="155.739" gradientUnits="userSpaceOnUse"><stop stop-color="#B59130"/><stop offset=".5" stop-color="#F1D15F"/><stop offset="1" stop-color="#B59130"/></linearGradient><linearGradient id="paint32_linear" x1="-287.861" y1="-144.031" x2="114.17" y2="131.165" gradientUnits="userSpaceOnUse"><stop stop-color="#B59130"/><stop offset=".5" stop-color="#F1D15F"/><stop offset="1" stop-color="#B59130"/></linearGradient><linearGradient id="paint33_linear" x1="-284.361" y1="-169.314" x2="125.278" y2="110.669" gradientUnits="userSpaceOnUse"><stop stop-color="#B59130"/><stop offset=".5" stop-color="#F1D15F"/><stop offset="1" stop-color="#B59130"/></linearGradient><linearGradient id="paint34_linear" x1="-289.952" y1="-141.285" x2="110.27" y2="133.08" gradientUnits="userSpaceOnUse"><stop stop-color="#B59130"/><stop offset=".5" stop-color="#F1D15F"/><stop offset="1" stop-color="#B59130"/></linearGradient><linearGradient id="paint35_linear" x1="-264.817" y1="-180.689" x2="132.096" y2="92.422" gradientUnits="userSpaceOnUse"><stop stop-color="#B59130"/><stop offset=".5" stop-color="#F1D15F"/><stop offset="1" stop-color="#B59130"/></linearGradient><linearGradient id="paint36_linear" x1="-247.288" y1="-191.576" x2="136.815" y2="79.22" gradientUnits="userSpaceOnUse"><stop stop-color="#B59130"/><stop offset=".5" stop-color="#F1D15F"/><stop offset="1" stop-color="#B59130"/></linearGradient><linearGradient id="paint37_linear" x1="-285.242" y1="-164.003" x2="122.939" y2="114.891" gradientUnits="userSpaceOnUse"><stop stop-color="#B59130"/><stop offset=".5" stop-color="#F1D15F"/><stop offset="1" stop-color="#B59130"/></linearGradient><linearGradient id="paint38_linear" x1="-288.34" y1="-129.092" x2="105.031" y2="142.995" gradientUnits="userSpaceOnUse"><stop stop-color="#B59130"/><stop offset=".5" stop-color="#F1D15F"/><stop offset="1" stop-color="#B59130"/></linearGradient></defs></svg>