<svg width="180" height="20" fill="#fff" xmlns="http://www.w3.org/2000/svg"><path fill-rule="evenodd" clip-rule="evenodd" d="M73.2.006L58.644.008c-2.595 0-4.7 1.824-4.7 4.073l-.004 13.97c0 .533.5.965 1.117.965h2.473c.615 0 1.114-.432 1.114-.965V10.87H73.2c.615 0 1.113-.432 1.113-.967V.97c0-.533-.498-.965-1.113-.965zm-3.589 7.182c0 .532-.499.965-1.113.965h-9.855V3.687c0-.533.498-.965 1.113-.965h8.742c.614 0 1.113.432 1.113.965v3.501zM32.003 3.686c0-.532.498-.964 1.113-.964h13.442c.614 0 1.113-.432 1.113-.965V.972c0-.532-.499-.964-1.113-.964L32 .01c-2.596 0-4.698 1.824-4.698 4.072L27.3 18.053c0 .533.5.965 1.114.965h18.145c.614 0 1.113-.432 1.113-.965v-.784c0-.533-.499-.965-1.113-.965H33.116c-.615 0-1.113-.432-1.113-.965v-4.465h11.422c.615 0 1.114-.433 1.114-.968v-.784c0-.533-.5-.965-1.114-.965H32.003v-4.47zM84.62 15.334c0 .533.5.965 1.114.965h13.442c.618 0 1.113.432 1.113.965v.784c0 .533-.498.965-1.113.965H81.031c-.615 0-1.114-.432-1.114-.965l.003-13.97c0-2.249 2.105-4.072 4.7-4.072L99.18.003c.617 0 1.113.432 1.113.965v.784c0 .533-.498.965-1.113.965H85.737c-.614 0-1.113.432-1.113.964v11.653h-.003zM15.669 3.686c0-.532-.5-.964-1.114-.964H5.814c-.615 0-1.114.432-1.114.964v14.362c0 .535-.499.965-1.113.965H1.113C.5 19.013 0 18.58 0 18.048V4.075C0 1.826 2.102.003 4.697.003L19.265 0c.617 0 1.113.432 1.113.965l-.009 17.078c0 .535-.499.964-1.113.964h-2.474c-.617 0-1.113-.432-1.113-.964V3.686zm110.601.392c0-2.249-2.105-4.072-4.7-4.072L107.012.003c-.615 0-1.114.432-1.114.965v17.078c0 .532.499.964 1.114.964h18.145c.617 0 1.113-.432 1.113-.964V4.078zm-4.697 11.256c0 .533-.499.965-1.113.965h-8.742c-.615 0-1.113-.432-1.113-.964V3.688c0-.532.498-.964 1.113-.964h8.742c.614 0 1.113.432 1.113.964v11.646zm57.98-11.256c0-2.249-2.105-4.072-4.697-4.072L160.298.003c-.615 0-1.114.432-1.114.965v17.078c0 .532.499.964 1.114.964h2.47c.615 0 1.114-.432 1.114-.964v-7.182h10.971v7.182c0 .532.499.964 1.114.964h2.473c.618 0 1.113-.432 1.113-.964V4.078zm-4.7 4.074h-10.971V3.687c0-.533.499-.965 1.113-.965h8.742c.614 0 1.113.432 1.113.965v4.465h.003zM149.326.006c1.981 0 3.587 1.392 3.587 3.107l.003 14.938c0 .533-.499.965-1.113.965h-2.471c-.617 0-1.113-.432-1.113-.965l-.003-7.182h-10.968v7.182c0 .533-.499.965-1.114.965h-2.473c-.615 0-1.117-.432-1.117-.965V.973c0-.532.499-.965 1.114-.965h2.473c.615 0 1.114.433 1.114.965v7.182h10.971V.973c-.003-.535.496-.967 1.11-.967z"/></svg>