<svg width="30" height="30" fill="#fff" xmlns="http://www.w3.org/2000/svg"><path d="M14.98 0C8.916 0 3.983 4.932 3.983 10.995c0 2.785 1.755 6.72 5.216 11.695a78.475 78.475 0 005.123 6.57l.656.74.656-.74a78.591 78.591 0 005.123-6.57c3.461-4.975 5.216-8.91 5.216-11.695C25.974 4.932 21.042 0 14.98 0zm4.348 21.675a79.692 79.692 0 01-4.349 5.657 79.615 79.615 0 01-4.339-5.643c-3.207-4.61-4.902-8.308-4.902-10.694 0-5.096 4.146-9.241 9.241-9.241 5.096 0 9.241 4.145 9.241 9.24 0 2.384-1.692 6.077-4.892 10.68z"/><path d="M14.98 4.063a6.496 6.496 0 00-6.49 6.49 6.497 6.497 0 006.49 6.489 6.497 6.497 0 006.488-6.49 6.496 6.496 0 00-6.489-6.489zm0 11.225a4.74 4.74 0 01-4.736-4.736 4.74 4.74 0 014.735-4.735 4.74 4.74 0 014.736 4.736 4.74 4.74 0 01-4.736 4.735z"/></svg>