<svg width="39" height="39" fill="#fff" xmlns="http://www.w3.org/2000/svg"><path d="M34.934 15.778L8.322.565A4.294 4.294 0 004.04.58a4.3 4.3 0 00-2.135 3.708v30.426A4.3 4.3 0 004.04 38.42a4.29 4.29 0 004.28.014l26.613-15.213a4.297 4.297 0 002.16-3.722c0-1.535-.827-2.96-2.16-3.722zM23.402 12.18l-3.654 5.09-8.741-12.175 12.395 7.085zM6.025 36.385a1.674 1.674 0 01-.679-.213c-.518-.3-.84-.86-.84-1.46V4.288c0-.6.322-1.158.84-1.46a1.69 1.69 0 01.677-.216L18.147 19.5 6.025 36.385zm4.982-2.48l8.74-12.176 3.655 5.09-12.395 7.085zm22.637-12.94l-7.973 4.557-4.323-6.022 4.323-6.022 7.973 4.557c.524.3.85.861.85 1.465a1.69 1.69 0 01-.85 1.464z"/></svg>