<svg xmlns="http://www.w3.org/2000/svg" viewBox="0 0 397.324 397.324"><path d="M287.282 222.064c-1.04-6.352-3.952-12.48-8.848-17.376-7.056-7.056-16.576-9.968-25.776-9.024l49.776-49.776c12.448-12.448 12.448-32.816 0-45.248-12.448-12.448-32.816-12.448-45.248 0L149.538 208.288l.016-16.016c0-17.648-7.152-33.632-18.72-45.2a63.856 63.856 0 00-31.008-17.104c-.816-.224-1.696-.304-2.608-.304-6.432-.016-11.648 5.2-11.648 11.648l-.016 152.384v2.624l.112-.096c.592 25.664 10.608 51.168 30.208 70.752 40.464 40.464 106.032 40.464 146.496 0l37.216-37.216c8.32-8.32 11.04-20.112 8.224-30.768l-20.528-76.928zm.992 96.368l-37.216 37.216c-34.16 34.16-89.712 34.16-123.856 0-15.92-15.92-24.992-37.168-25.536-59.808l-.096-148.784a47.738 47.738 0 0117.936 11.344c9.056 9.056 14.048 21.072 14.032 33.888v29.568a6.993 6.993 0 004.128 6.384c5.856 2.624 12.912 1.616 17.728-3.2l113.104-113.104c6.24-6.24 16.4-6.24 22.624 0 6.24 6.24 6.24 16.4 0 22.624l-65.648 65.648a8.003 8.003 0 00-1.568 9.088 8.015 8.015 0 008.032 4.528l22.352-2.256c2.864-.288 8.32-.096 12.848 4.432 2.912 2.912 3.984 6.336 4.368 8.672l20.768 78.432c1.488 5.616-.016 11.344-4 15.328zM181.266 0l-11.312 11.312 28.96 28.96h-81.376v16h81.376l-28.896 28.912 11.312 11.312 48.208-48.224z"/></svg>